<?xml version="1.0" encoding="UTF-8"?><svg xmlns="http://www.w3.org/2000/svg" xmlns:xlink="http://www.w3.org/1999/xlink" fill-opacity="1" color-rendering="auto" color-interpolation="auto" text-rendering="auto" stroke="black" stroke-linecap="square" width="1521" stroke-miterlimit="10" shape-rendering="auto" stroke-opacity="1" fill="black" stroke-dasharray="none" font-weight="normal" stroke-width="1" height="926" font-family="'Dialog'" font-style="normal" stroke-linejoin="miter" font-size="12px" stroke-dashoffset="0" image-rendering="auto">
  <!--Generated by ySVG 2.6-->
  <defs id="genericDefs"/>
  <g>
    <defs id="defs1">
      <clipPath clipPathUnits="userSpaceOnUse" id="clipPath1">
        <path d="M0 0 L1521 0 L1521 926 L0 926 L0 0 Z"/>
      </clipPath>
      <clipPath clipPathUnits="userSpaceOnUse" id="clipPath2">
        <path d="M-76 -174 L1445 -174 L1445 752 L-76 752 L-76 -174 Z"/>
      </clipPath>
      <clipPath clipPathUnits="userSpaceOnUse" id="clipPath3">
        <path d="M-80 -178 L1441 -178 L1441 748 L-80 748 L-80 -178 Z"/>
      </clipPath>
    </defs>
    <g fill="white" text-rendering="geometricPrecision" shape-rendering="geometricPrecision" transform="translate(76,174)" stroke="white">
      <rect x="-76" width="1521" height="926" y="-174" clip-path="url(#clipPath2)" stroke="none"/>
    </g>
    <g fill="yellow" text-rendering="geometricPrecision" shape-rendering="geometricPrecision" transform="matrix(1,0,0,1,76,174)" stroke="yellow">
      <rect x="385.4341" y="67.6743" clip-path="url(#clipPath2)" width="282.9057" rx="4" ry="4" height="44" stroke="none"/>
    </g>
    <g font-size="16px" stroke-linecap="butt" transform="matrix(1,0,0,1,76,174)" text-rendering="geometricPrecision" font-family="sans-serif" shape-rendering="geometricPrecision" stroke-miterlimit="1.45">
      <text x="413.508" xml:space="preserve" y="95.9595" clip-path="url(#clipPath2)" stroke="none">crmdig:D2_Digitization_Process</text>
      <rect x="385.4341" y="67.6743" clip-path="url(#clipPath2)" fill="none" width="282.9057" rx="4" ry="4" height="44"/>
    </g>
    <g fill="yellow" text-rendering="geometricPrecision" shape-rendering="geometricPrecision" transform="matrix(1,0,0,1,76,174)" stroke="yellow">
      <rect x="-34.367" y="67.6743" clip-path="url(#clipPath2)" width="170.0633" rx="4" ry="4" height="44" stroke="none"/>
    </g>
    <g font-size="16px" stroke-linecap="butt" transform="matrix(1,0,0,1,76,174)" text-rendering="geometricPrecision" font-family="sans-serif" shape-rendering="geometricPrecision" stroke-miterlimit="1.45">
      <text x="-22.6947" xml:space="preserve" y="95.9595" clip-path="url(#clipPath2)" stroke="none">crm:E52_Time-Span</text>
      <rect x="-34.367" y="67.6743" clip-path="url(#clipPath2)" fill="none" width="170.0633" rx="4" ry="4" height="44"/>
    </g>
    <g fill="yellow" text-rendering="geometricPrecision" shape-rendering="geometricPrecision" transform="matrix(1,0,0,1,76,174)" stroke="yellow">
      <rect x="274.4067" y="-158.6283" clip-path="url(#clipPath2)" width="294.0422" rx="4" ry="4" height="44" stroke="none"/>
    </g>
    <g font-size="16px" stroke-linecap="butt" transform="matrix(1,0,0,1,76,174)" text-rendering="geometricPrecision" font-family="sans-serif" shape-rendering="geometricPrecision" stroke-miterlimit="1.45">
      <text x="280.0294" xml:space="preserve" y="-130.3432" clip-path="url(#clipPath2)" stroke="none">crm:E24_Physical_Human-Made_Thing</text>
      <rect x="274.4067" y="-158.6283" clip-path="url(#clipPath2)" fill="none" width="294.0422" rx="4" ry="4" height="44"/>
    </g>
    <g fill="yellow" text-rendering="geometricPrecision" shape-rendering="geometricPrecision" transform="matrix(1,0,0,1,76,174)" stroke="yellow">
      <rect x="1113.4754" y="67.6743" clip-path="url(#clipPath2)" width="147.3432" rx="4" ry="4" height="44" stroke="none"/>
    </g>
    <g font-size="16px" stroke-linecap="butt" transform="matrix(1,0,0,1,76,174)" text-rendering="geometricPrecision" font-family="sans-serif" shape-rendering="geometricPrecision" stroke-miterlimit="1.45">
      <text x="1135.1274" xml:space="preserve" y="95.9595" clip-path="url(#clipPath2)" stroke="none">crm:E55_Type</text>
      <rect x="1113.4754" y="67.6743" clip-path="url(#clipPath2)" fill="none" width="147.3432" rx="4" ry="4" height="44"/>
    </g>
    <g fill="yellow" text-rendering="geometricPrecision" shape-rendering="geometricPrecision" transform="matrix(1,0,0,1,76,174)" stroke="yellow">
      <rect x="221.1317" y="243.7613" clip-path="url(#clipPath2)" width="147.3432" rx="4" ry="4" height="44" stroke="none"/>
    </g>
    <g font-size="16px" stroke-linecap="butt" transform="matrix(1,0,0,1,76,174)" text-rendering="geometricPrecision" font-family="sans-serif" shape-rendering="geometricPrecision" stroke-miterlimit="1.45">
      <text x="235.2213" xml:space="preserve" y="272.0464" clip-path="url(#clipPath2)" stroke="none">crm:E21_Person</text>
      <rect x="221.1317" y="243.7613" clip-path="url(#clipPath2)" fill="none" width="147.3432" rx="4" ry="4" height="44"/>
    </g>
    <g fill="yellow" text-rendering="geometricPrecision" shape-rendering="geometricPrecision" transform="matrix(1,0,0,1,76,174)" stroke="yellow">
      <rect x="752.7461" y="-75.3607" clip-path="url(#clipPath2)" width="147.3432" rx="4" ry="4" height="44" stroke="none"/>
    </g>
    <g font-size="16px" stroke-linecap="butt" transform="matrix(1,0,0,1,76,174)" text-rendering="geometricPrecision" font-family="sans-serif" shape-rendering="geometricPrecision" stroke-miterlimit="1.45">
      <text x="769.949" xml:space="preserve" y="-47.0755" clip-path="url(#clipPath2)" stroke="none">crm:E74_Group</text>
      <rect x="752.7461" y="-75.3607" clip-path="url(#clipPath2)" fill="none" width="147.3432" rx="4" ry="4" height="44"/>
    </g>
    <g fill="yellow" text-rendering="geometricPrecision" shape-rendering="geometricPrecision" transform="matrix(1,0,0,1,76,174)" stroke="yellow">
      <rect x="719.2194" y="243.7613" clip-path="url(#clipPath2)" width="214.3966" rx="4" ry="4" height="44" stroke="none"/>
    </g>
    <g font-size="16px" stroke-linecap="butt" transform="matrix(1,0,0,1,76,174)" text-rendering="geometricPrecision" font-family="sans-serif" shape-rendering="geometricPrecision" stroke-miterlimit="1.45">
      <text x="734.3826" xml:space="preserve" y="272.0464" clip-path="url(#clipPath2)" stroke="none">crmdig:D8_Digital_Device</text>
      <rect x="719.2194" y="243.7613" clip-path="url(#clipPath2)" fill="none" width="214.3966" rx="4" ry="4" height="44"/>
    </g>
    <g fill="yellow" text-rendering="geometricPrecision" shape-rendering="geometricPrecision" transform="matrix(1,0,0,1,76,174)" stroke="yellow">
      <rect x="385.4341" y="692.1684" clip-path="url(#clipPath2)" width="282.9057" rx="4" ry="4" height="44" stroke="none"/>
    </g>
    <g font-size="16px" stroke-linecap="butt" transform="matrix(1,0,0,1,76,174)" text-rendering="geometricPrecision" font-family="sans-serif" shape-rendering="geometricPrecision" stroke-miterlimit="1.45">
      <text x="410.383" xml:space="preserve" y="720.4536" clip-path="url(#clipPath2)" stroke="none">crmdig:D10_Software_Execution</text>
      <rect x="385.4341" y="692.1684" clip-path="url(#clipPath2)" fill="none" width="282.9057" rx="4" ry="4" height="44"/>
    </g>
    <g fill="yellow" text-rendering="geometricPrecision" shape-rendering="geometricPrecision" transform="matrix(1,0,0,1,76,174)" stroke="yellow">
      <rect x="419.6886" y="362.3846" clip-path="url(#clipPath2)" width="214.3966" rx="4" ry="4" height="44" stroke="none"/>
    </g>
    <g font-size="16px" stroke-linecap="butt" transform="matrix(1,0,0,1,76,174)" text-rendering="geometricPrecision" font-family="sans-serif" shape-rendering="geometricPrecision" stroke-miterlimit="1.45">
      <text x="441.5158" xml:space="preserve" y="390.6697" clip-path="url(#clipPath2)" stroke="none">crmdig:D9_Data_Object</text>
      <rect x="419.6886" y="362.3846" clip-path="url(#clipPath2)" fill="none" width="214.3966" rx="4" ry="4" height="44"/>
    </g>
    <g fill="yellow" text-rendering="geometricPrecision" shape-rendering="geometricPrecision" transform="matrix(1,0,0,1,76,174)" stroke="yellow">
      <rect x="932.6536" y="601.5355" clip-path="url(#clipPath2)" width="147.3432" rx="4" ry="4" height="44" stroke="none"/>
    </g>
    <g font-size="16px" stroke-linecap="butt" transform="matrix(1,0,0,1,76,174)" text-rendering="geometricPrecision" font-family="sans-serif" shape-rendering="geometricPrecision" stroke-miterlimit="1.45">
      <text x="949.8564" xml:space="preserve" y="629.8207" clip-path="url(#clipPath2)" stroke="none">crm:E74_Group</text>
      <rect x="932.6536" y="601.5355" clip-path="url(#clipPath2)" fill="none" width="147.3432" rx="4" ry="4" height="44"/>
    </g>
    <g fill="yellow" text-rendering="geometricPrecision" shape-rendering="geometricPrecision" transform="matrix(1,0,0,1,76,174)" stroke="yellow">
      <rect x="1238.6127" y="692.1684" clip-path="url(#clipPath2)" width="186.5565" rx="4" ry="4" height="44" stroke="none"/>
    </g>
    <g font-size="16px" stroke-linecap="butt" transform="matrix(1,0,0,1,76,174)" text-rendering="geometricPrecision" font-family="sans-serif" shape-rendering="geometricPrecision" stroke-miterlimit="1.45">
      <text x="1254.9691" xml:space="preserve" y="720.4536" clip-path="url(#clipPath2)" stroke="none">crmdig:D14_Software</text>
      <rect x="1238.6127" y="692.1684" clip-path="url(#clipPath2)" fill="none" width="186.5565" rx="4" ry="4" height="44"/>
    </g>
    <g fill="rgb(204,255,204)" text-rendering="geometricPrecision" shape-rendering="geometricPrecision" transform="matrix(1,0,0,1,76,174)" stroke="rgb(204,255,204)">
      <path d="M-23.3734 -158.1283 L143.2121 -158.1283 L124.7026 -115.1283 L-41.8829 -115.1283 Z" fill-rule="evenodd" clip-path="url(#clipPath2)" stroke="none"/>
    </g>
    <g font-size="16px" stroke-linecap="butt" transform="matrix(1,0,0,1,76,174)" text-rendering="geometricPrecision" font-family="sans-serif" shape-rendering="geometricPrecision" stroke-miterlimit="1.45">
      <text x="2.6451" xml:space="preserve" y="-130.3432" clip-path="url(#clipPath2)" stroke="none">xsd:dateTime</text>
      <path fill="none" d="M-23.3734 -158.1283 L143.2121 -158.1283 L124.7026 -115.1283 L-41.8829 -115.1283 Z" fill-rule="evenodd" clip-path="url(#clipPath2)"/>
    </g>
    <g fill="yellow" text-rendering="geometricPrecision" shape-rendering="geometricPrecision" transform="matrix(1,0,0,1,76,174)" stroke="yellow">
      <rect x="882.075" y="362.3846" clip-path="url(#clipPath2)" width="248.5003" rx="4" ry="4" height="44" stroke="none"/>
    </g>
    <g font-size="16px" stroke-linecap="butt" transform="matrix(1,0,0,1,76,174)" text-rendering="geometricPrecision" font-family="sans-serif" shape-rendering="geometricPrecision" stroke-miterlimit="1.45">
      <text x="904.501" xml:space="preserve" y="390.6697" clip-path="url(#clipPath2)" stroke="none">crm:E73_Information_Object</text>
      <rect x="882.075" y="362.3846" clip-path="url(#clipPath2)" fill="none" width="248.5003" rx="4" ry="4" height="44"/>
    </g>
    <g fill="yellow" text-rendering="geometricPrecision" shape-rendering="geometricPrecision" transform="matrix(1,0,0,1,76,174)" stroke="yellow">
      <rect x="913.047" y="481.9601" clip-path="url(#clipPath2)" width="186.5565" rx="4" ry="4" height="44" stroke="none"/>
    </g>
    <g font-size="16px" stroke-linecap="butt" transform="matrix(1,0,0,1,76,174)" text-rendering="geometricPrecision" font-family="sans-serif" shape-rendering="geometricPrecision" stroke-miterlimit="1.45">
      <text x="935.6299" xml:space="preserve" y="510.2452" clip-path="url(#clipPath2)" stroke="none">crm:E31_Document</text>
      <rect x="913.047" y="481.9601" clip-path="url(#clipPath2)" fill="none" width="186.5565" rx="4" ry="4" height="44"/>
    </g>
    <g stroke-linecap="round" transform="matrix(1,0,0,1,76,174)" stroke-dashoffset="2" fill="navy" text-rendering="geometricPrecision" shape-rendering="geometricPrecision" stroke-dasharray="0,4" stroke="navy" stroke-miterlimit="1.45">
      <path fill="none" d="M381.4212 89.6743 L146.7023 89.6743" clip-path="url(#clipPath2)"/>
      <path d="M389.4212 89.6743 C389.4212 91.8834 387.6304 93.6743 385.4212 93.6743 C383.2121 93.6743 381.4212 91.8834 381.4212 89.6743 C381.4212 87.4652 383.2121 85.6743 385.4212 85.6743 C387.6304 85.6743 389.4212 87.4652 389.4212 89.6743 Z" clip-path="url(#clipPath2)" stroke="none"/>
      <path d="M135.7023 89.6743 L147.7023 95.6743 L147.7023 83.6743 Z" clip-path="url(#clipPath2)" stroke="none"/>
      <rect x="176.3073" y="77.8735" clip-path="url(#clipPath2)" fill="white" width="168.5156" height="23.6016" stroke="none"/>
    </g>
    <g stroke-linecap="butt" font-size="16px" transform="matrix(1,0,0,1,76,174)" fill="navy" text-rendering="geometricPrecision" font-family="sans-serif" shape-rendering="geometricPrecision" stroke="navy" stroke-miterlimit="1.45">
      <text x="178.3073" xml:space="preserve" y="95.9595" clip-path="url(#clipPath2)" stroke="none">crm:P4_has_time-span</text>
    </g>
    <g stroke-linecap="round" transform="matrix(1,0,0,1,76,174)" stroke-dashoffset="2" fill="navy" text-rendering="geometricPrecision" shape-rendering="geometricPrecision" stroke-dasharray="0,4" stroke="navy" stroke-miterlimit="1.45">
      <path fill="none" d="M421.4278 63.6274 L421.4278 -103.6369" clip-path="url(#clipPath2)"/>
      <path d="M421.4278 71.6274 C419.2187 71.6274 417.4278 69.8366 417.4278 67.6274 C417.4278 65.4183 419.2187 63.6274 421.4278 63.6274 C423.6369 63.6274 425.4278 65.4183 425.4278 67.6274 C425.4278 69.8366 423.6369 71.6274 421.4278 71.6274 Z" clip-path="url(#clipPath2)" stroke="none"/>
      <path d="M421.4278 -114.6369 L415.4278 -102.6369 L427.4278 -102.6369 Z" clip-path="url(#clipPath2)" stroke="none"/>
      <rect x="350.502" y="-35.2778" clip-path="url(#clipPath2)" fill="white" width="141.8516" height="23.6016" stroke="none"/>
    </g>
    <g stroke-linecap="butt" font-size="16px" transform="matrix(1,0,0,1,76,174)" fill="navy" text-rendering="geometricPrecision" font-family="sans-serif" shape-rendering="geometricPrecision" stroke="navy" stroke-miterlimit="1.45">
      <text x="352.502" xml:space="preserve" y="-17.1918" clip-path="url(#clipPath2)" stroke="none">crmdig:L1_digitized</text>
    </g>
    <g stroke-linecap="round" transform="matrix(1,0,0,1,76,174)" stroke-dashoffset="2" fill="navy" text-rendering="geometricPrecision" shape-rendering="geometricPrecision" stroke-dasharray="0,4" stroke="navy" stroke-miterlimit="1.45">
      <path fill="none" d="M672.3465 89.6743 L1102.4624 89.6743" clip-path="url(#clipPath2)"/>
      <path d="M664.3465 89.6743 C664.3465 87.4652 666.1373 85.6743 668.3465 85.6743 C670.5557 85.6743 672.3465 87.4652 672.3465 89.6743 C672.3465 91.8834 670.5557 93.6743 668.3465 93.6743 C666.1373 93.6743 664.3465 91.8834 664.3465 89.6743 Z" clip-path="url(#clipPath2)" stroke="none"/>
      <path d="M1113.4624 89.6743 L1101.4624 83.6743 L1101.4624 95.6743 Z" clip-path="url(#clipPath2)" stroke="none"/>
      <rect x="767.0443" y="77.8735" clip-path="url(#clipPath2)" fill="white" width="247.7266" height="23.6016" stroke="none"/>
    </g>
    <g stroke-linecap="butt" font-size="16px" transform="matrix(1,0,0,1,76,174)" fill="navy" text-rendering="geometricPrecision" font-family="sans-serif" shape-rendering="geometricPrecision" stroke="navy" stroke-miterlimit="1.45">
      <text x="769.0443" xml:space="preserve" y="95.9595" clip-path="url(#clipPath2)" stroke="none">crm:P32_used_general_technique</text>
    </g>
    <g stroke-linecap="round" transform="matrix(1,0,0,1,76,174)" stroke-dashoffset="2" fill="navy" text-rendering="geometricPrecision" shape-rendering="geometricPrecision" stroke-dasharray="0,4" stroke="navy" stroke-miterlimit="1.45">
      <path fill="none" d="M417.3573 114.0558 L294.8033 205.9939 L294.8033 232.7863" clip-path="url(#clipPath2)"/>
      <path d="M423.7567 109.255 C425.0824 111.0222 424.7245 113.5294 422.9574 114.8551 C421.1902 116.1808 418.683 115.823 417.3573 114.0558 C416.0316 112.2887 416.3894 109.7814 418.1566 108.4557 C419.9237 107.13 422.431 107.4879 423.7567 109.255 Z" clip-path="url(#clipPath2)" stroke="none"/>
      <path d="M294.8033 243.7863 L300.8033 231.7863 L288.8033 231.7863 Z" clip-path="url(#clipPath2)" stroke="none"/>
      <rect x="262.4295" y="151.5958" clip-path="url(#clipPath2)" fill="white" width="178.3125" height="23.6016" stroke="none"/>
    </g>
    <g stroke-linecap="butt" font-size="16px" transform="matrix(1,0,0,1,76,174)" fill="navy" text-rendering="geometricPrecision" font-family="sans-serif" shape-rendering="geometricPrecision" stroke="navy" stroke-miterlimit="1.45">
      <text x="264.4294" xml:space="preserve" y="169.6818" clip-path="url(#clipPath2)" stroke="none">crm:P14_carried_out_by</text>
    </g>
    <g stroke-linecap="round" transform="matrix(1,0,0,1,76,174)" stroke-dashoffset="2" fill="navy" text-rendering="geometricPrecision" shape-rendering="geometricPrecision" stroke-dasharray="0,4" stroke="navy" stroke-miterlimit="1.45">
      <path fill="none" d="M526.8869 63.7092 L526.8869 -53.3607 L741.7416 -53.3607" clip-path="url(#clipPath2)"/>
      <path d="M526.8869 71.7092 C524.6777 71.7092 522.8869 69.9184 522.8869 67.7092 C522.8869 65.5001 524.6777 63.7092 526.8869 63.7092 C529.0961 63.7092 530.8869 65.5001 530.8869 67.7092 C530.8869 69.9184 529.0961 71.7092 526.8869 71.7092 Z" clip-path="url(#clipPath2)" stroke="none"/>
      <path d="M752.7416 -53.3607 L740.7416 -59.3607 L740.7416 -47.3607 Z" clip-path="url(#clipPath2)" stroke="none"/>
      <rect x="544.3126" y="-65.1615" clip-path="url(#clipPath2)" fill="white" width="181.8828" height="23.6016" stroke="none"/>
    </g>
    <g stroke-linecap="butt" font-size="16px" transform="matrix(1,0,0,1,76,174)" fill="navy" text-rendering="geometricPrecision" font-family="sans-serif" shape-rendering="geometricPrecision" stroke="navy" stroke-miterlimit="1.45">
      <text x="546.3126" xml:space="preserve" y="-47.0755" clip-path="url(#clipPath2)" stroke="none">crm:P11_had_participant</text>
    </g>
    <g stroke-linecap="round" transform="matrix(1,0,0,1,76,174)" stroke-dashoffset="2" fill="navy" text-rendering="geometricPrecision" shape-rendering="geometricPrecision" stroke-dasharray="0,4" stroke="navy" stroke-miterlimit="1.45">
      <path fill="none" d="M666.972 113.7765 L826.4177 212.4904 L826.4177 232.7818" clip-path="url(#clipPath2)"/>
      <path d="M660.17 109.5654 C661.3329 107.6871 663.7982 107.1071 665.6765 108.27 C667.5549 109.4329 668.1348 111.8982 666.972 113.7765 C665.8091 115.6548 663.3438 116.2348 661.4655 115.072 C659.5871 113.9091 659.0071 111.4437 660.17 109.5654 Z" clip-path="url(#clipPath2)" stroke="none"/>
      <path d="M826.4177 243.7818 L832.4177 231.7818 L820.4177 231.7818 Z" clip-path="url(#clipPath2)" stroke="none"/>
      <rect x="641.4373" y="154.5807" clip-path="url(#clipPath2)" fill="white" width="221.0078" height="23.6016" stroke="none"/>
    </g>
    <g stroke-linecap="butt" font-size="16px" transform="matrix(1,0,0,1,76,174)" fill="navy" text-rendering="geometricPrecision" font-family="sans-serif" shape-rendering="geometricPrecision" stroke="navy" stroke-miterlimit="1.45">
      <text x="643.4373" xml:space="preserve" y="172.6667" clip-path="url(#clipPath2)" stroke="none">crm:P16_used_specific_object</text>
    </g>
    <g stroke-linecap="round" transform="matrix(1,0,0,1,76,174)" stroke-dashoffset="2" fill="navy" text-rendering="geometricPrecision" shape-rendering="geometricPrecision" stroke-dasharray="0,4" stroke="navy" stroke-miterlimit="1.45">
      <path fill="none" d="M937.6413 265.7613 L1187.147 265.7613 L1187.147 122.6422" clip-path="url(#clipPath2)"/>
      <path d="M929.6413 265.7613 C929.6413 263.5522 931.4321 261.7613 933.6413 261.7613 C935.8505 261.7613 937.6413 263.5522 937.6413 265.7613 C937.6413 267.9704 935.8505 269.7613 933.6413 269.7613 C931.4321 269.7613 929.6413 267.9704 929.6413 265.7613 Z" clip-path="url(#clipPath2)" stroke="none"/>
      <path d="M1187.147 111.6422 L1181.147 123.6422 L1193.147 123.6422 Z" clip-path="url(#clipPath2)" stroke="none"/>
      <rect x="1000.6901" y="253.9605" clip-path="url(#clipPath2)" fill="white" width="128.5078" height="23.6016" stroke="none"/>
    </g>
    <g stroke-linecap="butt" font-size="16px" transform="matrix(1,0,0,1,76,174)" fill="navy" text-rendering="geometricPrecision" font-family="sans-serif" shape-rendering="geometricPrecision" stroke="navy" stroke-miterlimit="1.45">
      <text x="1002.6901" xml:space="preserve" y="272.0464" clip-path="url(#clipPath2)" stroke="none">crm:P2_has_type</text>
    </g>
    <g stroke-linecap="round" transform="matrix(1,0,0,1,76,174)" stroke-dashoffset="2" fill="navy" text-rendering="geometricPrecision" shape-rendering="geometricPrecision" stroke-dasharray="0,4" stroke="navy" stroke-miterlimit="1.45">
      <path fill="none" d="M381.4212 714.1685 L50.6646 714.1685 L50.6646 122.6673" clip-path="url(#clipPath2)"/>
      <path d="M389.4212 714.1685 C389.4212 716.3776 387.6304 718.1685 385.4212 718.1685 C383.2121 718.1685 381.4212 716.3776 381.4212 714.1685 C381.4212 711.9593 383.2121 710.1685 385.4212 710.1685 C387.6304 710.1685 389.4212 711.9593 389.4212 714.1685 Z" clip-path="url(#clipPath2)" stroke="none"/>
      <path d="M50.6646 111.6673 L44.6646 123.6673 L56.6646 123.6673 Z" clip-path="url(#clipPath2)" stroke="none"/>
      <rect x="-33.5932" y="405.6831" clip-path="url(#clipPath2)" fill="white" width="168.5156" height="23.6016" stroke="none"/>
    </g>
    <g stroke-linecap="butt" font-size="16px" transform="matrix(1,0,0,1,76,174)" fill="navy" text-rendering="geometricPrecision" font-family="sans-serif" shape-rendering="geometricPrecision" stroke="navy" stroke-miterlimit="1.45">
      <text x="-31.5932" xml:space="preserve" y="423.769" clip-path="url(#clipPath2)" stroke="none">crm:P4_has_time-span</text>
    </g>
    <g stroke-linecap="round" transform="matrix(1,0,0,1,76,174)" stroke-dashoffset="2" fill="navy" text-rendering="geometricPrecision" shape-rendering="geometricPrecision" stroke-dasharray="0,4" stroke="navy" stroke-miterlimit="1.45">
      <path fill="none" d="M381.4231 696.5001 L294.8033 696.5001 L294.8033 298.7662" clip-path="url(#clipPath2)"/>
      <path d="M389.4231 696.5001 C389.4231 698.7093 387.6322 700.5001 385.4231 700.5001 C383.2139 700.5001 381.4231 698.7093 381.4231 696.5001 C381.4231 694.291 383.2139 692.5001 385.4231 692.5001 C387.6322 692.5001 389.4231 694.291 389.4231 696.5001 Z" clip-path="url(#clipPath2)" stroke="none"/>
      <path d="M294.8033 287.7662 L288.8033 299.7662 L300.8033 299.7662 Z" clip-path="url(#clipPath2)" stroke="none"/>
      <rect x="205.647" y="484.8924" clip-path="url(#clipPath2)" fill="white" width="178.3125" height="23.6016" stroke="none"/>
    </g>
    <g stroke-linecap="butt" font-size="16px" transform="matrix(1,0,0,1,76,174)" fill="navy" text-rendering="geometricPrecision" font-family="sans-serif" shape-rendering="geometricPrecision" stroke="navy" stroke-miterlimit="1.45">
      <text x="207.647" xml:space="preserve" y="502.9784" clip-path="url(#clipPath2)" stroke="none">crm:P14_carried_out_by</text>
    </g>
    <g stroke-linecap="round" transform="matrix(1,0,0,1,76,174)" stroke-dashoffset="2" fill="navy" text-rendering="geometricPrecision" shape-rendering="geometricPrecision" stroke-dasharray="0,4" stroke="navy" stroke-miterlimit="1.45">
      <path fill="none" d="M672.3558 699.0674 L1187.147 699.0674 L1187.147 391.0598 L1263.051 391.0598" clip-path="url(#clipPath2)"/>
      <path d="M664.3558 699.0674 C664.3558 696.8582 666.1466 695.0674 668.3558 695.0674 C670.5649 695.0674 672.3558 696.8582 672.3558 699.0674 C672.3558 701.2766 670.5649 703.0674 668.3558 703.0674 C666.1466 703.0674 664.3558 701.2766 664.3558 699.0674 Z" clip-path="url(#clipPath2)" stroke="none"/>
      <path fill="none" d="M526.8869 688.1372 L526.8869 417.3615" clip-path="url(#clipPath2)"/>
      <path d="M526.8869 696.1372 C524.6777 696.1372 522.8869 694.3464 522.8869 692.1372 C522.8869 689.928 524.6777 688.1372 526.8869 688.1372 C529.0961 688.1372 530.8869 689.928 530.8869 692.1372 C530.8869 694.3464 529.0961 696.1372 526.8869 696.1372 Z" clip-path="url(#clipPath2)" stroke="none"/>
      <path d="M526.8869 406.3615 L520.8869 418.3615 L532.8869 418.3615 Z" clip-path="url(#clipPath2)" stroke="none"/>
      <rect x="440.8244" y="527.675" clip-path="url(#clipPath2)" fill="white" width="172.125" height="43.2031" stroke="none"/>
    </g>
    <g stroke-linecap="butt" font-size="16px" transform="matrix(1,0,0,1,76,174)" fill="navy" text-rendering="geometricPrecision" font-family="sans-serif" shape-rendering="geometricPrecision" stroke="navy" stroke-miterlimit="1.45">
      <text x="447.719" xml:space="preserve" y="545.7609" clip-path="url(#clipPath2)" stroke="none">crmdig:L10_had_input</text>
      <text x="442.8244" xml:space="preserve" y="565.3624" clip-path="url(#clipPath2)" stroke="none">crmdig:L11_had_output</text>
    </g>
    <g stroke-linecap="round" transform="matrix(1,0,0,1,76,174)" stroke-dashoffset="2" fill="navy" text-rendering="geometricPrecision" shape-rendering="geometricPrecision" stroke-dasharray="0,4" stroke="navy" stroke-miterlimit="1.45">
      <path fill="none" d="M526.8869 115.6553 L526.8869 351.3785" clip-path="url(#clipPath2)"/>
      <path d="M526.8869 107.6553 C529.0961 107.6553 530.8869 109.4461 530.8869 111.6553 C530.8869 113.8644 529.0961 115.6553 526.8869 115.6553 C524.6777 115.6553 522.8869 113.8644 522.8869 111.6553 C522.8869 109.4461 524.6777 107.6553 526.8869 107.6553 Z" clip-path="url(#clipPath2)" stroke="none"/>
      <path d="M526.8869 362.3785 L532.8869 350.3785 L520.8869 350.3785 Z" clip-path="url(#clipPath2)" stroke="none"/>
      <rect x="440.8244" y="225.2287" clip-path="url(#clipPath2)" fill="white" width="172.125" height="23.6016" stroke="none"/>
    </g>
    <g stroke-linecap="butt" font-size="16px" transform="matrix(1,0,0,1,76,174)" fill="navy" text-rendering="geometricPrecision" font-family="sans-serif" shape-rendering="geometricPrecision" stroke="navy" stroke-miterlimit="1.45">
      <text x="442.8244" xml:space="preserve" y="243.3146" clip-path="url(#clipPath2)" stroke="none">crmdig:L11_had_output</text>
    </g>
    <g stroke-linecap="round" transform="matrix(1,0,0,1,76,174)" stroke-dashoffset="2" fill="navy" text-rendering="geometricPrecision" shape-rendering="geometricPrecision" stroke-dasharray="0,4" stroke="navy" stroke-miterlimit="1.45">
      <path fill="none" d="M630.9153 688.1594 L630.9153 623.5355 L921.6822 623.5355" clip-path="url(#clipPath2)"/>
      <path d="M630.9153 696.1594 C628.7062 696.1594 626.9153 694.3685 626.9153 692.1594 C626.9153 689.9502 628.7062 688.1594 630.9153 688.1594 C633.1245 688.1594 634.9153 689.9502 634.9153 692.1594 C634.9153 694.3685 633.1245 696.1594 630.9153 696.1594 Z" clip-path="url(#clipPath2)" stroke="none"/>
      <path d="M932.6822 623.5355 L920.6822 617.5355 L920.6822 629.5355 Z" clip-path="url(#clipPath2)" stroke="none"/>
      <rect x="686.2805" y="611.7348" clip-path="url(#clipPath2)" fill="white" width="181.8828" height="23.6016" stroke="none"/>
    </g>
    <g stroke-linecap="butt" font-size="16px" transform="matrix(1,0,0,1,76,174)" fill="navy" text-rendering="geometricPrecision" font-family="sans-serif" shape-rendering="geometricPrecision" stroke="navy" stroke-miterlimit="1.45">
      <text x="688.2805" xml:space="preserve" y="629.8207" clip-path="url(#clipPath2)" stroke="none">crm:P11_had_participant</text>
    </g>
    <g stroke-linecap="round" transform="matrix(1,0,0,1,76,174)" stroke-dashoffset="2" fill="navy" text-rendering="geometricPrecision" shape-rendering="geometricPrecision" stroke-dasharray="0,4" stroke="navy" stroke-miterlimit="1.45">
      <path fill="none" d="M672.3135 714.1685 L1227.6158 714.1685" clip-path="url(#clipPath2)"/>
      <path d="M664.3135 714.1685 C664.3135 711.9593 666.1043 710.1685 668.3135 710.1685 C670.5226 710.1685 672.3135 711.9593 672.3135 714.1685 C672.3135 716.3776 670.5226 718.1685 668.3135 718.1685 C666.1043 718.1685 664.3135 716.3776 664.3135 714.1685 Z" clip-path="url(#clipPath2)" stroke="none"/>
      <path d="M1238.6158 714.1685 L1226.6158 708.1685 L1226.6158 720.1685 Z" clip-path="url(#clipPath2)" stroke="none"/>
      <rect x="808.7419" y="702.3677" clip-path="url(#clipPath2)" fill="white" width="289.4688" height="23.6016" stroke="none"/>
    </g>
    <g stroke-linecap="butt" font-size="16px" transform="matrix(1,0,0,1,76,174)" fill="navy" text-rendering="geometricPrecision" font-family="sans-serif" shape-rendering="geometricPrecision" stroke="navy" stroke-miterlimit="1.45">
      <text x="810.7419" xml:space="preserve" y="720.4536" clip-path="url(#clipPath2)" stroke="none">crmdig:L23_used_software_or_firmware</text>
    </g>
    <g stroke-linecap="round" transform="matrix(1,0,0,1,76,174)" stroke-dashoffset="2" fill="navy" text-rendering="geometricPrecision" shape-rendering="geometricPrecision" stroke-dasharray="0,4" stroke="navy" stroke-miterlimit="1.45">
      <path fill="none" d="M1331.891 688.2007 L1331.891 94.6866 L1271.844 94.6866" clip-path="url(#clipPath2)"/>
      <path d="M1331.891 696.2007 C1329.6819 696.2007 1327.891 694.4099 1327.891 692.2007 C1327.891 689.9916 1329.6819 688.2007 1331.891 688.2007 C1334.1001 688.2007 1335.891 689.9916 1335.891 692.2007 C1335.891 694.4099 1334.1001 696.2007 1331.891 696.2007 Z" clip-path="url(#clipPath2)" stroke="none"/>
      <path d="M1260.844 94.6866 L1272.844 100.6866 L1272.844 88.6866 Z" clip-path="url(#clipPath2)" stroke="none"/>
      <rect x="1267.637" y="377.0642" clip-path="url(#clipPath2)" fill="white" width="128.5078" height="23.6016" stroke="none"/>
    </g>
    <g stroke-linecap="butt" font-size="16px" transform="matrix(1,0,0,1,76,174)" fill="navy" text-rendering="geometricPrecision" font-family="sans-serif" shape-rendering="geometricPrecision" stroke="navy" stroke-miterlimit="1.45">
      <text x="1269.6371" xml:space="preserve" y="395.1501" clip-path="url(#clipPath2)" stroke="none">crm:P2_has_type</text>
    </g>
    <g stroke-linecap="round" transform="matrix(1,0,0,1,76,174)" stroke-dashoffset="2" fill="green" text-rendering="geometricPrecision" shape-rendering="geometricPrecision" stroke-dasharray="0,4" stroke="green" stroke-miterlimit="1.45">
      <path fill="none" d="M50.6646 63.6573 L50.6646 -100.1324" clip-path="url(#clipPath2)"/>
    </g>
    <g stroke-linecap="round" transform="matrix(1,0,0,1,76,174)" fill-opacity="0" stroke-dashoffset="2" fill="rgb(0,0,0)" text-rendering="geometricPrecision" shape-rendering="geometricPrecision" stroke-dasharray="0,4" stroke="rgb(0,0,0)" stroke-opacity="0" stroke-miterlimit="1.45">
      <path d="M50.6646 71.6573 C48.4555 71.6573 46.6646 69.8665 46.6646 67.6573 C46.6646 65.4482 48.4555 63.6573 50.6646 63.6573 C52.8738 63.6573 54.6646 65.4482 54.6646 67.6573 C54.6646 69.8665 52.8738 71.6573 50.6646 71.6573 Z" stroke="none" clip-path="url(#clipPath2)"/>
    </g>
    <g stroke-linecap="butt" transform="matrix(1,0,0,1,76,174)" fill="green" text-rendering="geometricPrecision" shape-rendering="geometricPrecision" stroke="green" stroke-miterlimit="1.45">
      <path fill="none" d="M50.6646 71.6573 C48.4555 71.6573 46.6646 69.8665 46.6646 67.6573 C46.6646 65.4482 48.4555 63.6573 50.6646 63.6573 C52.8738 63.6573 54.6646 65.4482 54.6646 67.6573 C54.6646 69.8665 52.8738 71.6573 50.6646 71.6573 Z" clip-path="url(#clipPath2)"/>
    </g>
    <g stroke-linecap="round" transform="matrix(1,0,0,1,76,174)" stroke-dashoffset="2" fill="white" text-rendering="geometricPrecision" shape-rendering="geometricPrecision" stroke-dasharray="0,4" stroke="white" stroke-miterlimit="1.45">
      <path d="M50.6646 -115.1324 L44.6646 -99.1324 L56.6646 -99.1324 Z" stroke="none" clip-path="url(#clipPath2)"/>
    </g>
    <g stroke-linecap="butt" transform="matrix(1,0,0,1,76,174)" fill="green" text-rendering="geometricPrecision" shape-rendering="geometricPrecision" stroke="green" stroke-miterlimit="1.45">
      <path fill="none" d="M50.6646 -115.1324 L44.6646 -99.1324 L56.6646 -99.1324 Z" clip-path="url(#clipPath2)"/>
    </g>
    <g stroke-linecap="round" transform="matrix(1,0,0,1,76,174)" stroke-dashoffset="2" fill="white" text-rendering="geometricPrecision" shape-rendering="geometricPrecision" stroke-dasharray="0,4" stroke="white" stroke-miterlimit="1.45">
      <rect x="-60.308" width="221.9453" height="43.2031" y="-45.3286" clip-path="url(#clipPath2)" stroke="none"/>
    </g>
    <g stroke-linecap="butt" font-size="16px" transform="matrix(1,0,0,1,76,174)" fill="green" text-rendering="geometricPrecision" font-family="sans-serif" shape-rendering="geometricPrecision" stroke="green" stroke-miterlimit="1.45">
      <text x="-58.308" xml:space="preserve" y="-27.2426" clip-path="url(#clipPath2)" stroke="none">crm:P82a_begin_of_the_begin</text>
      <text x="-45.8549" xml:space="preserve" y="-7.6411" clip-path="url(#clipPath2)" stroke="none">crm:P82b_end_of_the_end</text>
    </g>
    <g stroke-linecap="round" transform="matrix(1,0,0,1,76,174)" stroke-dashoffset="2" fill="navy" text-rendering="geometricPrecision" shape-rendering="geometricPrecision" stroke-dasharray="0,4" stroke="navy" stroke-miterlimit="1.45">
      <path fill="none" d="M878.082 385.4372 L645.0878 387.3495" clip-path="url(#clipPath2)"/>
      <path d="M886.0818 385.3715 C886.0999 387.5806 884.3238 389.3861 882.1147 389.4042 C879.9057 389.4224 878.1002 387.6463 878.082 385.4372 C878.0639 383.2281 879.84 381.4226 882.0491 381.4045 C884.2581 381.3864 886.0637 383.1624 886.0818 385.3715 Z" clip-path="url(#clipPath2)" stroke="none"/>
      <path d="M634.0882 387.4398 L646.137 393.3411 L646.0386 381.3416 Z" clip-path="url(#clipPath2)" stroke="none"/>
      <rect x="690.2754" y="374.6213" clip-path="url(#clipPath2)" fill="white" width="135.6094" height="23.6016" stroke="none"/>
    </g>
    <g stroke-linecap="butt" font-size="16px" transform="matrix(1,0,0,1,76,174)" fill="navy" text-rendering="geometricPrecision" font-family="sans-serif" shape-rendering="geometricPrecision" stroke="navy" stroke-miterlimit="1.45">
      <text x="692.2755" xml:space="preserve" y="392.7073" clip-path="url(#clipPath2)" stroke="none">crm:P67_refers_to</text>
    </g>
    <g stroke-linecap="round" transform="matrix(1,0,0,1,76,174)" stroke-dashoffset="2" fill="navy" text-rendering="geometricPrecision" shape-rendering="geometricPrecision" stroke-dasharray="0,4" stroke="navy" stroke-miterlimit="1.45">
      <path fill="none" d="M1082.9098 358.3517 L1082.9098 286.6638" clip-path="url(#clipPath2)"/>
      <path d="M1082.9098 366.3517 C1080.7007 366.3517 1078.9098 364.5609 1078.9098 362.3517 C1078.9098 360.1426 1080.7007 358.3517 1082.9098 358.3517 C1085.1189 358.3517 1086.9098 360.1426 1086.9098 362.3517 C1086.9098 364.5609 1085.1189 366.3517 1082.9098 366.3517 Z" clip-path="url(#clipPath2)" stroke="none"/>
      <path fill="none" d="M1006.3252 410.3671 L1006.3252 470.9921" clip-path="url(#clipPath2)"/>
      <path d="M1006.3252 402.3671 C1008.5344 402.3671 1010.3252 404.158 1010.3252 406.3671 C1010.3252 408.5762 1008.5344 410.3671 1006.3252 410.3671 C1004.116 410.3671 1002.3252 408.5762 1002.3252 406.3671 C1002.3252 404.158 1004.116 402.3671 1006.3252 402.3671 Z" clip-path="url(#clipPath2)" stroke="none"/>
      <path d="M1006.3252 481.9921 L1012.3252 469.9921 L1000.3252 469.9921 Z" clip-path="url(#clipPath2)" stroke="none"/>
      <rect x="903.3799" y="432.3715" clip-path="url(#clipPath2)" fill="white" width="205.8906" height="23.6016" stroke="none"/>
    </g>
    <g stroke-linecap="butt" font-size="16px" transform="matrix(1,0,0,1,76,174)" fill="navy" text-rendering="geometricPrecision" font-family="sans-serif" shape-rendering="geometricPrecision" stroke="navy" stroke-miterlimit="1.45">
      <text x="905.3799" xml:space="preserve" y="450.4575" clip-path="url(#clipPath2)" stroke="none">crm:P70i_is_documented_in</text>
    </g>
    <g fill="rgb(210,210,210)" text-rendering="geometricPrecision" shape-rendering="geometricPrecision" transform="matrix(1,0,0,1,76,174) translate(4,4)" stroke="rgb(210,210,210)">
      <rect x="1027.3839" width="397.7853" height="126.3694" y="-158.6283" clip-path="url(#clipPath3)" stroke="none"/>
    </g>
    <g fill="white" text-rendering="geometricPrecision" shape-rendering="geometricPrecision" transform="matrix(1,0,0,1,76,174)" stroke="white">
      <rect x="1027.3839" width="397.7853" height="126.3694" y="-158.6283" clip-path="url(#clipPath2)" stroke="none"/>
      <rect x="1027.3839" y="-158.6283" clip-path="url(#clipPath2)" fill="rgb(183,182,158)" width="397.7853" height="22.3765" stroke="none"/>
    </g>
    <g font-size="15px" stroke-linecap="butt" transform="matrix(1,0,0,1,76,174)" text-rendering="geometricPrecision" font-family="sans-serif" shape-rendering="geometricPrecision" font-weight="bold" stroke-miterlimit="1.45">
      <text x="1352.2927" xml:space="preserve" y="-141.5477" clip-path="url(#clipPath2)" stroke="none">Prefixes   </text>
      <rect fill="none" x="1027.3839" width="397.7853" height="126.3694" y="-158.6283" clip-path="url(#clipPath2)"/>
      <text x="1046.6392" xml:space="preserve" font-size="16px" y="-103.1659" clip-path="url(#clipPath2)" stroke="none">crm:</text>
      <text x="1046.6392" xml:space="preserve" font-size="16px" y="-83.5643" clip-path="url(#clipPath2)" stroke="none">crmdig:</text>
      <text x="1046.6392" xml:space="preserve" font-size="16px" y="-63.9628" clip-path="url(#clipPath2)" stroke="none">xsd:</text>
      <text x="1136.0364" font-size="16px" y="-103.1659" clip-path="url(#clipPath2)" stroke="none" font-weight="normal" xml:space="preserve">http://www.cidoc-crm.org/cidoc-crm/</text>
      <text x="1136.0364" font-size="16px" y="-83.5643" clip-path="url(#clipPath2)" stroke="none" font-weight="normal" xml:space="preserve">http://www.ics.forth.gr/isl/CRMdig/</text>
      <text x="1136.0364" font-size="16px" y="-63.9628" clip-path="url(#clipPath2)" stroke="none" font-weight="normal" xml:space="preserve">http://www.w3.org/2001/XMLSchema#</text>
    </g>
  </g>
</svg>
